<svg xmlns="http://www.w3.org/2000/svg" width="1200" height="630" viewBox="0 0 1200 630" role="img" aria-label="Nycto landing page preview">
  <rect width="1200" height="630" fill="#050506"/>
  <g opacity="0.34">
    <circle cx="50" cy="50" r="2" fill="#ffffff"/>
    <circle cx="110" cy="110" r="2" fill="#ffffff"/>
    <circle cx="170" cy="50" r="2" fill="#ffffff"/>
    <circle cx="230" cy="110" r="2" fill="#ffffff"/>
    <circle cx="290" cy="50" r="2" fill="#ffffff"/>
    <circle cx="350" cy="110" r="2" fill="#ffffff"/>
    <circle cx="410" cy="50" r="2" fill="#ffffff"/>
    <circle cx="470" cy="110" r="2" fill="#ffffff"/>
  </g>
  <rect x="72" y="72" width="1056" height="486" rx="42" fill="#17181b" stroke="#32323a"/>
  <rect x="92" y="92" width="82" height="82" rx="24" fill="#ff4b43"/>
  <path d="M118 146V120c0-5 6-8 10-5l24 18c4 3 9 0 9-5v-13" fill="none" stroke="#ffffff" stroke-width="8" stroke-linecap="round" stroke-linejoin="round"/>
  <text x="198" y="145" fill="#f8f7f4" font-size="58" font-weight="700" font-family="Space Grotesk, IBM Plex Sans, Arial">Nycto</text>
  <text x="92" y="290" fill="#f8f7f4" font-size="74" font-weight="700" font-family="Space Grotesk, IBM Plex Sans, Arial">Give every minute</text>
  <text x="92" y="370" fill="#f8f7f4" font-size="74" font-weight="700" font-family="Space Grotesk, IBM Plex Sans, Arial">a clear objective.</text>
  <text x="96" y="440" fill="#aaa5ae" font-size="28" font-family="IBM Plex Sans, Arial">Focus timers, planned blocks, and objective history in one calm record.</text>
  <rect x="828" y="122" width="190" height="386" rx="38" fill="#090a0c" stroke="#32323a"/>
  <rect x="844" y="150" width="158" height="330" rx="28" fill="#202126"/>
  <rect x="862" y="175" width="120" height="52" rx="20" fill="#5a1715"/>
  <rect x="862" y="260" width="120" height="22" rx="11" fill="#ff4b43"/>
  <rect x="862" y="302" width="74" height="22" rx="11" fill="#6962ef"/>
  <rect x="862" y="344" width="96" height="22" rx="11" fill="#18c6c5"/>
  <rect x="862" y="410" width="120" height="40" rx="20" fill="#ff4b43"/>
</svg>
